<svg width="206" height="35" viewBox="0 0 206 35" fill="none" xmlns="http://www.w3.org/2000/svg">
<path d="M28.9168 29.286C26.1781 29.286 24.0981 28.558 22.6768 27.102C21.2554 25.6287 20.5448 23.3667 20.5448 20.316C20.5448 17.352 21.2381 15.116 22.6248 13.608C24.0114 12.0827 26.1088 11.32 28.9168 11.32C29.8354 11.32 30.7541 11.4327 31.6728 11.658C32.6088 11.8833 33.5101 12.1953 34.3768 12.594V15.714C33.4928 15.1593 32.6348 14.7607 31.8028 14.518C30.9708 14.2753 30.1648 14.154 29.3848 14.154C28.2408 14.154 27.2788 14.362 26.4988 14.778C25.7361 15.1767 25.1554 15.8267 24.7568 16.728C24.3754 17.6293 24.1848 18.834 24.1848 20.342C24.1848 21.8327 24.3841 23.0287 24.7828 23.93C25.1814 24.8313 25.7708 25.4813 26.5508 25.88C27.3481 26.2787 28.3361 26.478 29.5148 26.478C30.2254 26.478 30.9881 26.3567 31.8028 26.114C32.6348 25.8713 33.4928 25.4813 34.3768 24.944V28.064C33.8741 28.3067 33.3108 28.5233 32.6868 28.714C32.0801 28.9047 31.4561 29.0433 30.8148 29.13C30.1734 29.234 29.5408 29.286 28.9168 29.286ZM37.6775 29V11.658H49.2995V14.492H41.2135V18.886H48.2335V21.746H41.2135V26.166H49.2995V29H37.6775ZM52.9881 29V11.658H56.5241V26.14H64.4281V29H52.9881ZM67.1561 29V11.658H70.6921V29H67.1561ZM73.0355 29L79.6915 11.658H83.5135L89.8575 29H86.2175L80.5495 12.854L82.1095 12.724L76.4415 29H73.0355ZM76.5455 24.762L77.3775 22.058H85.4635L85.7495 24.762H76.5455ZM107.018 29.286C104.28 29.286 102.2 28.558 100.778 27.102C99.357 25.6287 98.6463 23.3667 98.6463 20.316C98.6463 17.352 99.3397 15.116 100.726 13.608C102.113 12.0827 104.21 11.32 107.018 11.32C107.937 11.32 108.856 11.4327 109.774 11.658C110.71 11.8833 111.612 12.1953 112.478 12.594V15.714C111.594 15.1593 110.736 14.7607 109.904 14.518C109.072 14.2753 108.266 14.154 107.486 14.154C106.342 14.154 105.38 14.362 104.6 14.778C103.838 15.1767 103.257 15.8267 102.858 16.728C102.477 17.6293 102.286 18.834 102.286 20.342C102.286 21.8327 102.486 23.0287 102.884 23.93C103.283 24.8313 103.872 25.4813 104.652 25.88C105.45 26.2787 106.438 26.478 107.616 26.478C108.327 26.478 109.09 26.3567 109.904 26.114C110.736 25.8713 111.594 25.4813 112.478 24.944V28.064C111.976 28.3067 111.412 28.5233 110.788 28.714C110.182 28.9047 109.558 29.0433 108.916 29.13C108.275 29.234 107.642 29.286 107.018 29.286ZM115.779 29V11.658H119.315V18.912H126.517V11.658H130.027V29H126.517V21.85H119.315V29H115.779ZM132.373 29L139.029 11.658H142.851L149.195 29H145.555L139.887 12.854L141.447 12.724L135.779 29H132.373ZM135.883 24.762L136.715 22.058H144.801L145.087 24.762H135.883ZM151.529 29V11.658H154.701L164.165 24.606L163.151 26.686V11.658H166.427V29H163.567L153.869 16L154.831 14.414V29H151.529ZM177.962 29.312C176.229 29.312 174.738 29 173.49 28.376C172.242 27.752 171.28 26.7813 170.604 25.464C169.945 24.1293 169.616 22.4133 169.616 20.316C169.616 18.2533 169.945 16.5633 170.604 15.246C171.28 13.9113 172.242 12.9233 173.49 12.282C174.738 11.6407 176.22 11.32 177.936 11.32C178.993 11.32 180.025 11.4327 181.03 11.658C182.035 11.866 182.997 12.1693 183.916 12.568V15.844C182.945 15.3413 182.009 14.934 181.108 14.622C180.224 14.31 179.314 14.154 178.378 14.154C177.251 14.154 176.298 14.3533 175.518 14.752C174.755 15.1507 174.175 15.8007 173.776 16.702C173.395 17.6033 173.204 18.808 173.204 20.316C173.204 21.8067 173.403 23.0113 173.802 23.93C174.201 24.8313 174.773 25.49 175.518 25.906C176.281 26.3047 177.182 26.504 178.222 26.504C178.777 26.504 179.288 26.4693 179.756 26.4C180.241 26.3133 180.692 26.1833 181.108 26.01V22.396H177.858V19.562H184.618V27.622C183.578 28.1767 182.495 28.6013 181.368 28.896C180.259 29.1733 179.123 29.312 177.962 29.312Z" fill="#8284BA"/>
<path d="M9.78387 32.3C8.36387 32.3 7.22387 32.1 6.36387 31.7C5.52387 31.32 4.91387 30.78 4.53387 30.08C4.15387 29.4 3.96387 28.59 3.96387 27.65V23.33C3.96387 22.87 3.84387 22.51 3.60387 22.25C3.38387 21.97 3.13387 21.77 2.85387 21.65C2.59387 21.53 2.39387 21.45 2.25387 21.41V18.95C2.39387 18.91 2.59387 18.83 2.85387 18.71C3.13387 18.59 3.38387 18.4 3.60387 18.14C3.84387 17.86 3.96387 17.49 3.96387 17.03V12.71C3.96387 11.77 4.15387 10.95 4.53387 10.25C4.91387 9.55 5.52387 9.01 6.36387 8.63C7.22387 8.25 8.36387 8.06 9.78387 8.06H10.3539V11.48H9.90387C9.42387 11.48 9.04387 11.57 8.76387 11.75C8.50387 11.91 8.31387 12.15 8.19387 12.47C8.07387 12.77 8.01387 13.16 8.01387 13.64V17.12C8.01387 17.92 7.78387 18.57 7.32387 19.07C6.86387 19.55 6.33387 19.92 5.73387 20.18C6.33387 20.42 6.86387 20.79 7.32387 21.29C7.78387 21.77 8.01387 22.42 8.01387 23.24V26.72C8.01387 27.2 8.07387 27.6 8.19387 27.92C8.31387 28.22 8.50387 28.46 8.76387 28.64C9.04387 28.8 9.42387 28.88 9.90387 28.88H10.3539V32.3H9.78387Z" fill="#6C6F70"/>
<path d="M196.042 32.3V28.88H196.462C196.942 28.88 197.322 28.8 197.602 28.64C197.882 28.46 198.072 28.22 198.172 27.92C198.292 27.6 198.352 27.2 198.352 26.72V23.24C198.352 22.42 198.582 21.77 199.042 21.29C199.522 20.79 200.062 20.42 200.662 20.18C200.062 19.92 199.522 19.55 199.042 19.07C198.582 18.57 198.352 17.92 198.352 17.12V13.64C198.352 13.16 198.292 12.77 198.172 12.47C198.072 12.15 197.882 11.91 197.602 11.75C197.322 11.57 196.942 11.48 196.462 11.48H196.042V8.06H196.582C198.002 8.06 199.132 8.25 199.972 8.63C200.832 9.01 201.452 9.55 201.832 10.25C202.212 10.95 202.402 11.77 202.402 12.71V17.03C202.402 17.49 202.512 17.86 202.732 18.14C202.972 18.4 203.222 18.59 203.482 18.71C203.762 18.83 203.972 18.91 204.112 18.95V21.41C203.972 21.45 203.762 21.53 203.482 21.65C203.222 21.77 202.972 21.97 202.732 22.25C202.512 22.51 202.402 22.87 202.402 23.33V27.65C202.402 28.59 202.212 29.4 201.832 30.08C201.452 30.78 200.832 31.32 199.972 31.7C199.132 32.1 198.002 32.3 196.582 32.3H196.042Z" fill="#6C6F70"/>
</svg>
